<!--?xml version="1.0" encoding="utf-8"?-->
<!-- Svg Vector Icons : http://www.onlinewebfonts.com/icon -->

<svg version="1.1" xmlns="http://www.w3.org/2000/svg" xmlns:xlink="http://www.w3.org/1999/xlink" x="0px" y="0px" viewBox="0 0 256 256" enable-background="new 0 0 256 256" xml:space="preserve">
<metadata> Svg Vector Icons : http://www.onlinewebfonts.com/icon </metadata>
<g><g><path fill="#03A342" data-title="Layer 0" xs="0" d="M38.2,191.3h-9.3V43.2C28.9,24.9,43.8,10,62.1,10h70.4v9.3H62.1C49,19.3,38.2,30,38.2,43.2V191.3L38.2,191.3z"/><path fill="#838383" data-title="Layer 1" xs="1" d="M155.9,40.8v34.5c0,13.1,10.7,23.8,23.8,23.8H227v-0.6l-66.2-57.7H155.9z"/><path fill="#03A342" data-title="Layer 2" xs="2" d="M146.4,75.3V40.8H94.1c-15.8,0-28.5,12.8-28.5,28.5v148.1c0,15.7,12.8,28.5,28.5,28.5h104.4c15.8,0,28.6-12.8,28.6-28.5V108.6h-47.4C161.3,108.6,146.4,93.7,146.4,75.3z"/></g></g>
</svg>